<svg width="105" height="48" viewBox="0 0 105 48" fill="none" xmlns="http://www.w3.org/2000/svg">
<rect width="105" height="48" fill="#F5F5F5"/>
<g clip-path="url(#clip0_0_1)">
<path d="M62.9244 16.3371C60.6228 16.3371 58.9092 17.5736 58.9092 20.5524C58.9092 22.7956 60.039 24.354 62.8026 24.354C65.1462 24.354 66.7338 22.8416 66.7338 20.4604C66.7338 17.7575 65.31 16.3371 62.9244 16.3371ZM58.3212 37.363C57.7752 38.0939 57.2334 38.8707 57.2334 39.7901C57.2334 41.6196 59.367 42.1712 62.2944 42.1712C64.722 42.1712 68.0274 41.9874 68.0274 39.5143C68.0274 38.0479 66.4356 37.956 64.428 37.818L58.3212 37.363ZM70.707 16.475C71.4588 17.5277 72.2568 18.9941 72.2568 21.0994C72.2568 26.1835 68.6154 29.1576 63.3444 29.1576C62.0046 29.1576 60.7908 28.9738 60.039 28.7485L58.6572 31.1756L62.7564 31.4514C69.9972 31.9571 74.2644 32.1869 74.2644 38.2731C74.2644 43.5411 70.0392 46.5152 62.7564 46.5152C55.1838 46.5152 52.2942 44.4099 52.2942 40.7922C52.2942 38.7282 53.13 37.6342 54.5958 36.1218C53.214 35.4829 52.7562 34.3383 52.7562 33.1017C52.7562 32.095 53.214 31.1756 53.97 30.3068C54.7218 29.438 55.5576 28.5646 56.5656 27.5579C54.516 26.4593 52.9662 24.0781 52.9662 20.6857C52.9662 15.4177 56.1456 11.8046 62.5464 11.8046C64.3482 11.8046 65.436 11.9839 66.3978 12.2643H74.5584V16.1578L70.707 16.475ZM81.9252 8.15476C79.5396 8.15476 78.1578 6.64241 78.1578 4.03141C78.1578 1.42501 79.5396 0 81.9252 0C84.3528 0 85.7346 1.42042 85.7346 4.03141C85.7304 6.64241 84.3528 8.15476 81.9252 8.15476ZM76.524 35.6759V32.0582L78.6576 31.7365C79.2456 31.6445 79.3254 31.5066 79.3254 30.8171V17.3576C79.3254 16.8565 79.1994 16.5348 78.7794 16.3969L76.5198 15.5281L76.9818 11.8184H85.6464V30.8263C85.6464 31.5618 85.6884 31.6491 86.3142 31.7456L88.4478 32.0674V35.6851L76.524 35.6759ZM105 33.9016C103.198 34.8623 100.565 35.7311 98.1792 35.7311C93.198 35.7311 91.3164 33.5338 91.3164 28.3578V16.3601C91.3164 16.0843 91.3164 15.9004 90.9804 15.9004H88.053V11.823C91.7364 11.3633 93.2022 9.34993 93.66 4.35779H97.6374V10.8623C97.6374 11.1795 97.6374 11.322 97.9734 11.322H103.874V15.9004H97.6374V26.8454C97.6374 29.5484 98.2254 30.601 100.481 30.601C101.653 30.601 102.866 30.2793 103.87 29.8701L105 33.9016Z" fill="#413000"/>
<path d="M42.9955 21.8809L23.8603 0.942338C22.7599 -0.262029 20.9707 -0.262029 19.8703 0.942338L15.8971 5.29093L20.9371 10.8071C22.1089 10.375 23.4529 10.6646 24.3853 11.6851C25.3219 12.7148 25.5865 14.195 25.1833 15.4821L30.0427 20.8006C31.2187 20.3593 32.5753 20.6443 33.5119 21.674C34.8223 23.1082 34.8223 25.4342 33.5119 26.873C32.2015 28.3072 30.0763 28.3072 28.7617 26.873C27.7747 25.7928 27.5311 24.2068 28.0309 22.8738L23.4991 17.9138V30.9596C23.8183 31.1343 24.1207 31.3641 24.3853 31.6537C25.6957 33.0879 25.6957 35.4139 24.3853 36.8527C23.0749 38.2869 20.9455 38.2869 19.6351 36.8527C18.3247 35.4139 18.3247 33.0879 19.6351 31.6537C19.9585 31.2997 20.3323 31.0331 20.7355 30.8539V17.684C20.3365 17.5047 19.9585 17.2381 19.6351 16.8841C18.6397 15.7993 18.4003 14.1996 18.9127 12.8665L13.9441 7.42845L0.827497 21.7843C-0.272903 22.9933 -0.272903 24.9469 0.827497 26.1513L19.9627 47.0898C21.0631 48.2942 22.8523 48.2942 23.9527 47.0898L42.9997 26.2478C44.1001 25.0481 44.1001 23.0898 42.9955 21.8809Z" fill="#F05133"/>
</g>
<defs>
<clipPath id="clip0_0_1">
<rect width="105" height="48" fill="white"/>
</clipPath>
</defs>
</svg>
