<svg width="135" height="48" viewBox="0 0 135 48" fill="none" xmlns="http://www.w3.org/2000/svg">
<rect width="135" height="48" fill="#F5F5F5"/>
<g clip-path="url(#clip0_0_1)">
<path d="M15.7203 19.1037C13.8438 7.94852 9.92881 4.97805 8.92981 2.87964C8.51806 1.95307 8.15356 0.990159 7.83631 0C7.78231 0.990159 7.68781 1.61696 7.06006 2.37093C5.80456 3.87888 0.46531 9.72899 0.0198099 22.4012C-0.39869 34.2195 6.47281 41.5049 7.38406 42.2589C8.07931 42.7222 8.92981 42.268 9.34831 41.841C12.6558 38.7888 17.1851 30.6313 15.7203 19.1037Z" fill="#10AA50"/>
<path d="M8.12003 35.9727C7.94453 38.8977 7.82303 40.5964 7.38428 42.2679C7.38428 42.2679 7.67453 45.0567 7.87703 47.9999H8.59253C8.76128 45.9197 9.02453 43.8576 9.37553 41.8228C8.44403 41.2051 8.16053 38.5344 8.12003 35.9727Z" fill="#B8C4C2"/>
<path d="M9.37597 41.8229C8.43772 41.2415 8.16772 38.5163 8.12047 35.9728C8.34997 31.776 8.41747 27.5701 8.32297 23.3642C8.27572 21.1567 8.34322 2.9251 7.91797 0.254395C8.20822 1.1628 8.54572 2.03486 8.92372 2.87968C9.92272 4.97809 13.8377 7.94857 15.721 19.1038C17.1857 30.6041 12.6835 38.7434 9.37597 41.8229Z" fill="#12924F"/>
<path d="M132.961 37.7895C131.834 37.7895 130.923 36.5631 130.923 35.0461C130.923 33.5291 131.834 32.3027 132.961 32.3027C134.075 32.3027 134.98 33.5109 135 35.0007C135.027 36.4905 134.156 37.735 133.042 37.7804C133.015 37.7895 132.988 37.7895 132.961 37.7895ZM132.961 32.5571C131.935 32.548 131.105 33.6562 131.098 35.037C131.092 36.4178 131.915 37.5351 132.941 37.5442C133.967 37.5533 134.797 36.445 134.804 35.0643V35.0552C134.824 33.7017 134.021 32.5843 133.015 32.5571H132.961ZM133.454 36.7812L132.928 35.255H132.502V36.7812H132.192V33.3111H132.955C133.522 33.3111 133.758 33.6381 133.758 34.283C133.758 34.7917 133.582 35.1097 133.252 35.2096L133.792 36.7812H133.454ZM132.516 34.9008H132.961C133.319 34.9008 133.461 34.7372 133.461 34.2921C133.461 33.847 133.333 33.7017 132.921 33.7017H132.516V34.9008ZM102.661 35.2914C103.214 35.8818 104.314 36.1271 105.286 36.1271C106.542 36.1271 107.777 35.8092 108.985 34.3466C110.214 32.8478 111.058 30.5495 111.058 26.8796C111.058 23.355 110.059 20.4935 108.013 18.822C106.859 17.85 105.367 17.4594 103.66 17.4594C103.167 17.4594 102.661 17.4958 102.377 17.6684C102.262 17.7955 102.175 17.9681 102.141 18.168C102.087 18.7948 102.087 23.573 102.087 26.3981C102.087 29.2959 102.087 33.3383 102.141 33.8288C102.161 34.2558 102.323 34.9916 102.661 35.2914ZM97.4293 15.897C97.8748 15.897 99.5691 15.9969 100.359 15.9969C101.83 15.9969 102.85 15.897 105.604 15.897C107.912 15.897 109.849 16.7327 111.24 18.3406C112.921 20.2936 113.818 23.0188 113.818 26.3345C113.818 31.0491 112.225 33.7653 110.619 35.3005C109.026 36.9083 106.947 37.8167 103.99 37.8167C102.418 37.8167 99.7176 37.7441 97.4631 37.7168H97.4158C97.3078 37.4352 97.6116 36.3451 97.7938 36.3179C98.4081 36.227 98.5701 36.1907 98.8536 36.0363C99.3328 35.7728 99.4408 35.4458 99.4948 34.2921C99.5758 32.1301 99.5488 29.5503 99.5488 26.6161C99.5488 24.5268 99.5758 20.439 99.5218 19.1491C99.4408 18.0681 99.1033 17.7865 98.4148 17.5775C97.9288 17.4413 97.4361 17.3322 96.9433 17.2596C96.8893 17.0506 97.2943 16.1059 97.4226 15.897M120.312 17.6684C120.211 17.7047 120.076 18.0499 120.076 18.2225C120.049 19.4761 120.022 22.7554 120.022 25.0264C120.035 25.1173 120.089 25.1808 120.15 25.199C120.487 25.2354 121.331 25.2717 122.04 25.2717C123.039 25.2717 123.613 25.0991 123.93 24.8902C124.767 24.336 125.158 23.1097 125.158 21.7834C125.158 18.7494 123.586 17.5957 121.25 17.5957C120.933 17.5957 120.616 17.6139 120.312 17.6684ZM126.259 31.6214C126.259 28.551 124.578 26.8069 121.513 26.8069C121.385 26.8069 120.406 26.7706 120.177 26.8432C120.096 26.8796 120.022 26.9431 120.022 27.0158C120.022 29.2142 119.995 32.7388 120.076 34.1286C120.13 34.7191 120.447 35.5548 120.838 35.8001C121.257 36.118 122.202 36.1816 122.857 36.1816C124.659 36.1907 126.259 34.8372 126.259 31.6214ZM115.573 15.9606C115.81 15.9606 116.505 16.0605 118.294 16.0605C119.974 16.0605 121.338 15.9878 122.958 15.9878C124.976 15.9878 127.757 16.9689 127.757 21.0113C127.757 22.9916 126.711 24.6086 125.347 25.3716C125.266 25.4079 125.266 25.4715 125.347 25.5079C127.285 26.171 128.992 27.7789 128.992 30.8493C128.992 33.847 127.602 35.7365 125.584 36.9174C124.355 37.6532 122.83 37.8894 121.291 37.8894C120.109 37.8894 116.95 37.7259 115.195 37.7531C115.013 37.6532 115.364 36.5268 115.519 36.3542C115.924 36.336 116.323 36.2543 116.707 36.0998C117.335 35.8909 117.409 35.6184 117.49 34.3648C117.544 33.2838 117.544 29.414 117.544 26.6525C117.544 22.8826 117.571 20.3391 117.544 19.0855C117.517 18.1135 117.254 17.7955 116.755 17.6229C116.363 17.5139 115.708 17.414 115.182 17.305C115.04 17.1415 115.445 16.0968 115.573 15.9606ZM21.5323 37.7895C21.4648 37.5624 21.4378 37.3262 21.4513 37.0809C21.4446 36.9174 21.4716 36.7539 21.5323 36.6086C21.8698 36.545 22.2073 36.4541 22.5381 36.336C23.0038 36.1816 23.1793 35.8364 23.2063 35.0461C23.2806 33.1657 23.2873 29.632 23.2603 27.1521V27.0794C23.2603 26.816 23.2603 26.4526 23.0173 26.1892C22.5853 25.8258 22.1196 25.5442 21.6268 25.3625C21.4041 25.2717 21.2826 25.1173 21.2893 24.9356C21.2961 24.7539 21.4311 24.5359 21.7213 24.4632C22.4841 24.3633 24.4686 23.7183 25.2516 23.2369C25.3326 23.3822 25.3663 23.5548 25.3528 23.7365C25.3528 23.8455 25.3393 23.9636 25.3326 24.0817C25.3123 24.436 25.2853 24.8266 25.2853 25.2263C25.2988 25.3716 25.4001 25.4715 25.5013 25.4534C25.5418 25.4443 25.5823 25.417 25.6093 25.3807C27.1011 23.8092 28.4308 23.246 29.1126 23.246C30.2398 23.246 31.1173 23.9727 31.7923 25.4625C31.8261 25.5351 31.8801 25.5805 31.9476 25.5805C32.0016 25.5805 32.0556 25.5442 32.0893 25.4806C33.4596 24.0817 34.8163 23.246 35.7208 23.246C37.8673 23.246 39.1498 25.4079 39.1498 29.0234C39.1498 30.0681 39.1431 31.3852 39.1363 32.6116C39.1296 33.6926 39.1228 34.7009 39.1228 35.4004C39.1228 35.5639 39.2916 36.0453 39.5481 36.1362C39.8653 36.3451 40.3176 36.445 40.8913 36.5813H40.9116C40.9521 36.7902 40.8643 37.5987 40.7766 37.7622C40.6348 37.7622 40.4391 37.7441 40.1893 37.7259C39.7438 37.6986 39.1296 37.6532 38.4208 37.6532C36.9966 37.6532 36.2473 37.6896 35.5386 37.7531C35.4846 37.517 35.4643 36.7448 35.5318 36.5813C35.8288 36.5177 36.1191 36.436 36.4026 36.3269C36.8548 36.1271 36.9898 35.8455 37.0168 35.037C37.0303 34.4647 37.1113 29.3777 36.9628 28.1786C36.8278 26.925 36.1258 25.4625 34.6003 25.4625C34.0333 25.4625 33.1153 25.7804 32.2446 26.6706C32.1906 26.7524 32.1568 26.8614 32.1568 26.9704V26.9977C32.2581 27.6517 32.2581 28.4057 32.2581 29.5593C32.2581 30.2225 32.2581 30.9129 32.2513 31.5942C32.2446 32.9931 32.2378 34.3194 32.2581 35.3186C32.2581 35.9999 32.5618 36.1634 32.8116 36.2906C32.9466 36.3269 33.0478 36.3633 33.1558 36.3996C33.3583 36.4632 33.5743 36.5359 33.8916 36.6086C33.9388 36.8992 33.9321 37.199 33.8781 37.4897C33.8646 37.5987 33.8308 37.6986 33.7836 37.7895C32.9938 37.7531 32.1771 37.7259 31.0026 37.7259C30.6448 37.7259 30.0643 37.7441 29.5513 37.7622C29.1328 37.7804 28.7413 37.7895 28.5186 37.7895C28.4578 37.5987 28.4308 37.3898 28.4376 37.1808C28.4241 36.981 28.4511 36.7902 28.5186 36.6086L28.8358 36.5268C29.1126 36.4632 29.3488 36.4087 29.5716 36.3269C29.9563 36.1634 30.1048 35.8818 30.1318 35.2096C30.2061 33.6562 30.2668 29.1869 30.1048 28.0605C29.8281 26.2618 29.0653 25.3534 27.8436 25.3534C27.1281 25.3534 26.2236 25.8167 25.4878 26.5616C25.3461 26.7524 25.2651 27.0067 25.2718 27.2793V29.1233C25.2718 31.3671 25.2583 34.165 25.2988 35.3731C25.3258 35.7456 25.4203 36.1907 25.9401 36.3542C26.0548 36.3996 26.2506 36.445 26.4801 36.4905C26.6083 36.5177 26.7568 36.554 26.9053 36.5904C26.9526 36.9901 26.9256 37.3898 26.8378 37.7713C26.6083 37.7713 26.3316 37.7531 26.0076 37.735C25.5148 37.7077 24.9006 37.6714 24.2121 37.6714C23.3953 37.6714 22.8216 37.7077 22.3626 37.735C22.0656 37.7713 21.8023 37.7895 21.5323 37.7895ZM47.8506 24.7448C47.4051 24.7357 46.9731 24.8992 46.6018 25.2172C45.6906 25.9621 45.2248 27.4519 45.2248 29.6411C45.2248 33.738 46.7503 36.5904 48.9306 36.5904C49.5178 36.6176 50.0848 36.3451 50.5303 35.8273C51.1986 35.0915 51.5563 33.5927 51.5563 31.4852C51.5496 27.4519 50.0646 24.7448 47.8506 24.7448ZM48.2691 38.1074C44.3271 38.1074 42.9298 34.2195 42.9298 30.5768C42.9298 28.0332 43.6993 26.0438 45.2248 24.6721C46.2913 23.7819 47.5131 23.3005 48.7686 23.2641C51.7723 23.2641 53.8716 26.171 53.8716 30.3406C53.8716 33.1748 53.0346 35.4095 51.4483 36.8084C50.6856 37.4261 49.3626 38.1074 48.2691 38.1074ZM87.9591 24.7448C87.5136 24.7357 87.0816 24.8992 86.7036 25.2172C85.7923 25.9621 85.3266 27.4519 85.3266 29.6411C85.3266 33.738 86.8521 36.5904 89.0323 36.5904C89.6196 36.6176 90.1933 36.3451 90.6321 35.8273C91.3003 35.0915 91.6581 33.5927 91.6581 31.4852C91.6581 27.4519 90.1731 24.7448 87.9591 24.7448ZM88.3776 38.1074C84.4356 38.1074 83.0383 34.2195 83.0383 30.5768C83.0383 28.0332 83.8078 26.0438 85.3333 24.6631C86.3998 23.7728 87.6216 23.2823 88.8771 23.255C91.8808 23.255 93.9801 26.1619 93.9801 30.3315C93.9801 33.1657 93.1431 35.4004 91.5568 36.7993C90.7941 37.4261 89.4711 38.1074 88.3776 38.1074ZM74.6953 24.5995C73.4803 24.5995 72.6973 25.8894 72.6973 27.8879C72.6973 29.8864 73.3723 32.2573 75.2758 32.2573C75.5998 32.2573 76.1938 32.0665 76.4841 31.6305C76.9228 31.0855 77.2198 29.95 77.2198 28.76C77.2198 26.1619 76.2748 24.5995 74.6953 24.5995ZM74.5401 38.389C74.1958 38.3799 73.8583 38.498 73.5613 38.7161C72.6028 39.5427 72.1573 40.3693 72.1573 41.3232C72.1573 42.2225 72.4138 42.9401 72.9741 43.5669C73.6491 44.3391 74.5603 44.7115 75.7551 44.7115C78.1108 44.7115 79.1638 43.0037 79.1638 41.3232C79.1638 40.1513 78.7251 39.361 77.8206 38.9159C77.1253 38.5707 75.9643 38.389 74.5401 38.389ZM74.7021 46.4829C73.2913 46.4829 72.2721 46.0832 71.4013 45.1839C70.5576 44.3027 70.1728 43.0037 70.1728 42.0953C70.1796 41.5139 70.3483 40.9598 70.6386 40.5238C70.8816 40.1513 71.4553 39.4428 72.7716 38.2255C72.8121 38.1983 72.8391 38.1438 72.8391 38.0893C72.8391 38.0166 72.8053 37.9621 72.7581 37.9439C71.6713 37.3807 71.3473 36.4541 71.2461 35.9636C71.2461 35.9454 71.2461 35.9182 71.2326 35.8818C71.1988 35.6911 71.1718 35.5003 71.3676 35.3095C71.5228 35.1642 71.7658 34.9734 72.0223 34.7645C72.3868 34.492 72.7446 34.1831 73.0753 33.8379C73.1428 33.7471 73.1361 33.5927 73.0686 33.5109C73.0551 33.5018 73.0483 33.4836 73.0348 33.4746C71.4283 32.7478 70.6183 31.14 70.6183 28.6873C70.6116 27.1339 71.1651 25.6714 72.1033 24.7721C72.7513 24.0817 74.3713 23.255 75.4243 23.255H75.4851C76.5651 23.2914 77.1793 23.5911 78.0231 24.0181C78.5023 24.2543 79.0153 24.3633 79.5216 24.336C80.4193 24.336 80.8108 23.9545 81.1416 23.5094C81.1956 23.7092 81.2226 23.9182 81.2293 24.1362C81.2496 24.6449 81.1483 25.1445 80.9391 25.5715C80.7568 25.9167 80.3248 26.1619 79.9333 26.1619C79.8928 26.1619 79.8523 26.1619 79.8118 26.1528C79.6026 26.1347 79.4001 26.0893 79.1976 26.0166L79.0963 26.062C79.0626 26.1256 79.0828 26.1983 79.1098 26.28C79.1166 26.2982 79.1233 26.3164 79.1233 26.3345C79.1976 26.7796 79.2448 27.2248 79.2718 27.6699C79.2718 30.2407 78.5226 31.358 77.7058 32.1846C76.9161 32.9749 75.9846 33.4655 75.0058 33.5927C74.9856 33.5927 74.8843 33.6017 74.6886 33.629C74.5671 33.6472 74.4051 33.6653 74.3848 33.6653H74.3646C74.1891 33.7289 73.7233 34.0287 73.7233 34.5737C73.7233 35.0279 73.9326 35.6002 74.9316 35.7002L75.5796 35.7637C76.8958 35.8909 78.5361 36.0453 79.3123 36.3905C80.3653 36.8902 81.0606 38.2346 81.0403 39.7425C81.0403 42.0499 79.8253 44.2119 77.7868 45.5382C76.8283 46.1559 75.7753 46.4738 74.7088 46.4647M68.6743 36.5631C68.1006 36.4632 67.6753 36.3542 67.1826 36.0363C67.0881 35.9 67.0206 35.7274 67.0003 35.5366C66.9463 34.4556 66.9463 31.3126 66.9463 29.2596C66.9463 27.579 66.7371 26.1256 66.2106 25.0718C65.5828 23.8818 64.6918 23.1914 63.5376 23.1914C62.5183 23.1914 61.1548 24.1362 60.0276 25.4261C60.0006 25.4625 59.8251 25.6805 59.8318 25.3353C59.8386 24.9901 59.8723 24.2906 59.8993 23.8455C59.9196 23.6093 59.8588 23.364 59.7306 23.2005C58.9948 23.7002 56.9293 24.3542 56.1666 24.4541C55.6063 24.5995 55.4713 25.3171 56.0653 25.5715H56.0721C56.5513 25.7441 57.0036 26.0166 57.4221 26.3709C57.6583 26.6161 57.6313 26.9613 57.6313 27.2429C57.6583 29.5775 57.6583 33.1748 57.5773 35.1279C57.5503 35.9 57.3951 36.1725 56.9766 36.3179L57.0171 36.2997C56.6998 36.4087 56.3758 36.4905 56.0451 36.545C55.9168 36.7176 55.9168 37.735 56.0451 37.9439C56.3083 37.9439 57.6381 37.844 58.7451 37.844C60.2638 37.844 61.0536 37.9439 61.4451 37.9439C61.6003 37.6986 61.6543 36.7539 61.5531 36.545C61.1886 36.5268 60.8308 36.4541 60.4798 36.336C60.0613 36.1998 59.9533 35.9182 59.9331 35.2914C59.8791 33.6472 59.8791 30.1589 59.8791 27.788C59.8791 27.1248 60.0073 26.816 60.1693 26.6343C60.6958 26.0075 61.5598 25.5896 62.3226 25.5896C63.0583 25.5896 63.5511 25.9076 63.9156 26.3254C64.3476 26.8251 64.6108 27.5336 64.6648 28.2967C64.7661 29.6139 64.7391 32.2755 64.7391 34.5737C64.7391 35.8273 64.6648 36.1453 64.3206 36.2815C64.1653 36.3815 63.7468 36.4905 63.2473 36.5631C63.0921 36.7721 63.1393 37.7531 63.2473 37.9621C63.9291 37.9621 64.7188 37.8621 65.8663 37.8621C67.3108 37.8621 68.2288 37.9621 68.5933 37.9621C68.7283 37.7168 68.7823 36.7993 68.6743 36.5631Z" fill="#21313C"/>
</g>
<defs>
<clipPath id="clip0_0_1">
<rect width="135" height="48" fill="white"/>
</clipPath>
</defs>
</svg>
