<svg width="48" height="48" viewBox="0 0 48 48" fill="none" xmlns="http://www.w3.org/2000/svg">
<rect width="48" height="48" fill="#F5F5F5"/>
<g clip-path="url(#clip0_0_1)">
<path d="M46.5227 36.9961L24.9487 48V39.4297L38.3783 32.7617L46.5227 36.9922V36.9961ZM48 35.7891V12.7773L40.1069 16.8906V31.6836L48 35.7891ZM1.47726 36.9961L23.0513 48V39.4297L9.62166 32.7617L1.47726 36.9961ZM0 35.7891V12.7773L7.89314 16.8906V31.6836L0 35.7891ZM0.927076 11.2852L23.0513 0V8.28125L8.8722 15.3125L8.75957 15.3672L0.927076 11.2852ZM47.0729 11.2852L24.9487 0V8.28125L39.1278 15.3125L39.2404 15.3711L47.0729 11.2891V11.2852Z" fill="#8ED6FB"/>
<path d="M23.0512 37.5L9.78625 30.8984V17.8711L23.0512 24.7773V37.5ZM24.9487 37.5L38.2137 30.9063V17.8711L24.9487 24.7773V37.5ZM10.683 16.4062L24 9.76562L37.3169 16.3672L24 23.2969L10.683 16.3672V16.4062Z" fill="#1C78C0"/>
</g>
<defs>
<clipPath id="clip0_0_1">
<rect width="48" height="48" fill="white"/>
</clipPath>
</defs>
</svg>
